<?xml version="1.0" standalone="no"?>
<!DOCTYPE svg PUBLIC "-//W3C//DTD SVG 20010904//EN"
 "http://www.w3.org/TR/2001/REC-SVG-20010904/DTD/svg10.dtd">
<svg version="1.0" xmlns="http://www.w3.org/2000/svg"
 width="393.000000pt" height="393.000000pt" viewBox="0 0 393.000000 393.000000"
 preserveAspectRatio="xMidYMid meet">
<metadata>
Created by potrace 1.11, written by Peter Selinger 2001-2013
</metadata>
<g transform="translate(0.000000,393.000000) scale(0.100000,-0.100000)"
fill="#000000" stroke="none">
<path d="M1970 3487 c-25 -5 -51 -9 -57 -9 -7 -1 -13 -5 -13 -10 0 -4 -3 -7
-7 -7 -5 1 -11 0 -15 -1 -5 -1 -11 -3 -15 -5 -23 -6 -49 -20 -55 -29 -4 -6
-12 -11 -17 -11 -16 0 -111 -87 -105 -97 3 -5 0 -7 -7 -6 -7 2 -13 -3 -14 -10
0 -7 -5 -16 -11 -20 -9 -6 -44 -73 -45 -87 -1 -2 -6 -24 -13 -47 -24 -81 -6
-171 40 -209 16 -12 17 -12 9 1 -7 12 -5 12 11 -1 10 -9 38 -17 61 -18 35 -1
42 1 37 14 -3 8 -10 15 -15 15 -4 0 -6 7 -3 15 4 8 1 15 -6 15 -6 0 -8 5 -5
10 3 6 3 16 -2 23 -11 18 -15 38 -14 82 2 65 5 90 14 96 4 3 9 16 10 27 1 12
5 22 9 22 5 0 15 15 24 33 9 17 31 43 49 57 18 14 30 29 27 34 -3 5 2 7 10 3
9 -3 20 -1 26 5 34 34 202 44 250 14 6 -4 12 -4 12 1 0 4 4 3 8 -4 4 -6 14
-13 21 -15 8 -2 23 -10 33 -18 10 -8 24 -15 31 -15 7 0 12 -7 12 -15 1 -8 7
-14 14 -12 7 1 10 -2 7 -7 -3 -5 1 -14 9 -21 8 -7 15 -21 15 -32 0 -10 3 -17
8 -14 13 8 11 -128 -3 -161 -8 -18 -12 -33 -9 -33 2 0 -3 -11 -12 -25 -9 -14
-13 -25 -9 -25 4 0 2 -7 -5 -15 -7 -8 -9 -15 -5 -15 4 0 3 -6 -2 -12 -6 -7
-11 -20 -12 -28 0 -8 -2 -39 -4 -68 -4 -52 -24 -84 -38 -61 -3 6 -9 10 -13 10
-3 -1 -7 -1 -8 0 -26 7 -48 7 -48 -2 0 -5 -4 -7 -10 -4 -5 3 -12 -6 -16 -20
-3 -14 -8 -24 -11 -22 -5 5 -79 -66 -76 -74 1 -3 -14 -13 -33 -24 -19 -10 -34
-21 -34 -25 0 -16 -99 -4 -122 15 -34 30 -46 48 -41 62 3 7 0 13 -7 13 -6 0
-8 5 -5 10 3 6 3 16 -2 23 -4 6 -8 17 -9 22 0 6 -2 16 -2 23 -1 6 -7 12 -14
12 -6 0 -9 -2 -6 -5 3 -3 -12 -24 -34 -46 -22 -22 -36 -44 -32 -51 4 -6 3 -8
-3 -5 -9 6 -22 -11 -23 -28 0 -3 -9 -15 -19 -27 -11 -11 -18 -24 -16 -29 3 -4
-2 -15 -11 -23 -24 -25 -9 -19 40 15 50 36 140 49 150 22 3 -8 10 -12 15 -9 5
3 11 -1 15 -9 6 -18 71 -46 91 -40 8 3 23 8 33 12 9 3 22 7 27 7 9 1 64 34 75
46 3 3 11 6 19 8 7 1 28 14 46 27 17 14 37 25 44 25 7 0 9 5 6 10 -3 6 1 10
10 10 8 0 18 7 21 15 4 8 10 12 15 9 5 -3 9 -1 9 4 0 5 17 26 38 47 20 21 30
35 22 31 -9 -5 -8 -2 2 7 21 16 58 97 63 135 6 41 13 71 19 80 18 29 30 188
15 197 -5 4 -7 10 -4 15 3 5 0 20 -7 32 -7 13 -12 25 -11 28 1 3 -21 30 -49
60 -28 30 -48 48 -44 40 6 -12 5 -12 -6 1 -14 16 -48 33 -60 31 -5 -1 -8 2 -8
7 0 24 -148 43 -220 28z"/>
<path d="M1529 2903 c-1 -13 -2 -29 -3 -35 -1 -7 -4 -17 -9 -23 -67 -88 -104
-126 -196 -200 -61 -48 -108 -92 -104 -98 3 -6 1 -7 -4 -4 -6 4 -16 0 -23 -8
-7 -8 -10 -15 -7 -15 3 0 -5 -11 -18 -24 -34 -34 -83 -136 -100 -208 -14 -60
-19 -127 -30 -339 -5 -113 -18 -204 -46 -314 -43 -169 -102 -282 -196 -372
-30 -29 -52 -53 -48 -53 3 0 29 12 58 26 251 127 389 358 388 649 0 55 -3 111
-6 125 -4 14 -8 70 -10 125 -5 147 21 232 104 335 20 24 35 49 33 55 -2 5 -1
7 3 3 4 -4 39 18 79 50 82 65 101 82 89 82 -4 0 3 7 15 16 12 8 20 20 17 25
-4 5 -3 9 2 9 31 0 50 152 25 195 -11 19 -11 19 -13 -2z"/>
<path d="M1681 2535 c-28 -33 -35 -47 -32 -67 0 -5 -3 -8 -8 -8 -20 0 -32
-110 -20 -172 5 -23 11 -52 13 -63 3 -11 7 -31 11 -45 3 -14 8 -36 11 -50 3
-13 9 -29 15 -36 5 -6 6 -14 2 -17 -3 -4 -1 -13 5 -20 7 -8 9 -17 5 -20 -3 -4
-1 -7 6 -7 7 0 10 -3 7 -8 -2 -4 3 -23 11 -42 9 -19 18 -44 20 -55 2 -11 8
-22 13 -23 6 -2 8 -8 4 -13 -3 -5 0 -9 6 -9 6 0 9 -4 5 -9 -3 -5 0 -15 7 -23
7 -7 13 -17 13 -23 1 -18 28 -65 37 -65 5 0 7 -4 3 -9 -3 -5 1 -16 9 -24 8 -8
12 -17 9 -21 -4 -3 -1 -6 5 -6 7 0 12 -7 12 -15 0 -7 6 -18 14 -22 8 -4 16
-12 17 -18 3 -16 45 -78 68 -102 12 -13 19 -23 16 -23 -7 0 6 -15 55 -68 19
-20 35 -39 35 -42 0 -3 3 -4 7 -3 5 2 8 -2 8 -8 0 -16 170 -180 180 -174 4 3
11 -2 14 -11 3 -8 10 -12 16 -9 5 3 10 -1 10 -9 0 -10 6 -13 17 -9 11 4 14 3
9 -5 -4 -7 -2 -12 3 -12 18 0 26 -3 39 -17 8 -7 18 -11 23 -8 5 4 9 1 9 -5 0
-6 5 -8 10 -5 6 3 10 1 10 -5 0 -7 7 -10 15 -7 8 4 17 2 20 -3 7 -12 85 -6
112 8 13 7 28 22 34 35 11 19 10 20 -3 9 -19 -16 -96 -24 -104 -11 -3 5 -10 7
-15 4 -5 -4 -9 -1 -9 5 0 6 -4 9 -9 5 -6 -3 -14 3 -20 12 -6 10 -11 15 -11 11
0 -4 -17 8 -37 27 -20 19 -40 32 -44 29 -4 -2 -11 1 -15 7 -5 8 -2 10 7 5 8
-4 -11 16 -41 45 -30 29 -48 49 -40 45 8 -5 0 5 -17 22 -18 17 -33 36 -33 42
0 6 -4 8 -10 5 -5 -3 -10 1 -10 9 0 8 -10 22 -22 30 -12 9 -18 16 -13 16 6 1
0 9 -12 19 -12 10 -19 21 -16 25 3 3 -2 8 -11 12 -9 3 -16 12 -16 20 0 8 -5
14 -11 14 -5 0 -7 5 -4 10 3 6 -1 10 -9 10 -9 0 -13 6 -10 14 3 8 0 17 -7 22
-8 5 -10 3 -4 -6 5 -9 4 -11 -4 -6 -6 4 -9 11 -6 16 3 5 -3 18 -14 29 -11 11
-17 22 -14 25 4 3 1 6 -6 6 -7 0 -9 5 -6 10 3 6 1 10 -4 10 -6 0 -10 4 -8 9 1
5 -7 17 -18 26 -11 9 -13 13 -5 9 8 -5 3 8 -12 28 -15 19 -24 38 -21 42 4 3 1
6 -6 6 -7 0 -9 5 -6 10 3 6 1 10 -5 10 -6 0 -9 4 -5 9 3 6 -3 14 -12 20 -10 6
-14 11 -9 11 5 0 3 7 -4 15 -7 8 -9 15 -6 15 4 0 -2 14 -14 30 -12 17 -18 30
-14 30 4 0 0 8 -9 18 -10 10 -14 22 -10 25 3 4 1 7 -6 7 -7 0 -10 4 -7 9 6 10
-16 61 -26 61 -4 0 -4 7 -1 17 5 12 3 14 -7 8 -10 -6 -12 -4 -7 8 3 9 1 22 -6
29 -7 7 -14 24 -15 38 -2 14 -8 29 -13 35 -5 5 -9 19 -9 30 0 12 -3 25 -7 29
-25 25 -32 227 -10 264 15 23 -1 12 -32 -23z m620 -1242 c13 -16 12 -17 -3 -4
-10 7 -18 15 -18 17 0 8 8 3 21 -13z"/>
<path d="M1293 2311 c-17 -66 -4 -271 17 -271 5 0 6 -8 3 -19 -2 -10 2 -25 11
-33 8 -9 13 -18 10 -21 -7 -6 46 -129 59 -138 5 -3 8 -9 7 -13 -2 -13 64 -128
77 -133 7 -3 10 -9 8 -14 -3 -4 3 -17 15 -29 11 -11 20 -23 21 -27 1 -5 4 -7
8 -6 4 1 8 -4 8 -11 0 -19 45 -75 61 -75 7 -1 11 -5 8 -10 -3 -4 2 -17 10 -27
9 -10 12 -13 8 -5 -5 9 -3 12 4 7 7 -4 12 -13 12 -20 0 -7 14 -25 32 -42 17
-16 27 -23 23 -15 -5 9 -4 12 3 7 7 -4 12 -14 12 -22 0 -8 3 -14 8 -14 4 0 32
-23 62 -50 30 -27 61 -50 68 -50 6 0 12 -4 12 -10 0 -5 5 -10 12 -10 6 0 19
-6 27 -14 9 -8 23 -16 31 -18 8 -2 18 -6 21 -11 3 -4 15 -9 27 -12 11 -2 30
-9 42 -15 11 -6 25 -8 30 -5 5 3 11 1 14 -4 4 -5 20 -9 36 -9 l30 1 -33 23
c-17 13 -39 29 -47 36 -8 7 -16 12 -17 11 -1 -2 -26 19 -54 45 -28 26 -57 51
-65 55 -24 14 -174 167 -174 178 0 5 -4 8 -9 5 -4 -3 -17 4 -27 17 -19 21 -19
21 1 7 11 -8 2 5 -19 30 -22 25 -44 48 -49 51 -5 3 -9 10 -9 15 0 5 -4 8 -9 6
-5 -1 -8 1 -7 5 3 17 -15 42 -26 36 -6 -3 -8 -3 -4 2 4 4 -10 33 -31 64 -21
31 -41 66 -45 79 -4 12 -12 20 -17 16 -5 -3 -8 -2 -7 3 4 14 -13 53 -23 53 -6
0 -8 4 -5 8 3 5 -4 23 -15 40 -10 18 -19 39 -19 48 0 8 -4 13 -8 10 -4 -2 -8
3 -9 12 -1 14 -55 182 -81 252 -3 8 -4 21 -3 28 1 6 -2 19 -7 28 -7 13 -11 7
-19 -25z m378 -868 c13 -16 12 -17 -3 -4 -10 7 -18 15 -18 17 0 8 8 3 21 -13z"/>
<path d="M1395 1656 c2 -26 -3 -71 -11 -99 -8 -29 -16 -59 -17 -67 -1 -8 -5
-18 -10 -21 -4 -3 -17 -32 -29 -65 -29 -81 -33 -187 -8 -259 29 -85 35 -90 37
-31 2 57 42 190 74 244 10 19 17 38 14 43 -4 5 -2 9 3 9 12 0 34 49 27 61 -4
5 -1 9 5 9 16 0 5 100 -12 111 -7 5 -10 9 -5 9 4 0 0 11 -9 25 -9 14 -21 22
-27 18 -5 -3 -7 -2 -4 3 3 5 -3 20 -13 34 l-18 24 3 -48z"/>
<path d="M3124 1278 c-3 -4 -11 -5 -18 -2 -8 3 -17 0 -21 -5 -3 -6 -10 -9 -15
-6 -5 3 -20 0 -32 -7 -13 -6 -27 -13 -33 -14 -5 0 -13 -2 -17 -4 -5 -1 -11 -3
-15 -4 -20 -6 -70 -31 -85 -44 -10 -9 -18 -11 -18 -7 0 5 -7 0 -16 -11 -8 -10
-13 -12 -9 -4 4 8 -3 5 -14 -8 -11 -13 -23 -22 -27 -21 -4 1 -18 -9 -32 -22
-14 -13 -22 -17 -17 -10 6 10 -2 8 -21 -5 -91 -62 -276 -76 -387 -29 -20 8
-37 12 -37 9 0 -4 -6 -2 -12 3 -42 33 -254 56 -353 38 -48 -8 -146 -42 -154
-52 -3 -5 -12 -9 -19 -11 -7 -1 -36 -13 -64 -27 -28 -14 -58 -25 -65 -25 -7 0
-13 -5 -13 -11 0 -5 -4 -8 -9 -5 -5 3 -27 -1 -50 -9 -23 -8 -43 -14 -46 -15
-3 0 -6 0 -7 -1 -13 -4 -82 -7 -173 -9 -136 -2 -221 15 -419 82 -82 27 -172
53 -200 56 -88 12 -261 8 -278 -5 -8 -7 -17 -10 -21 -7 -8 8 -117 -28 -117
-38 0 -5 -5 -6 -10 -3 -10 6 -113 -47 -151 -77 -22 -18 -41 -57 -49 -100 -9
-46 0 -49 19 -7 8 18 24 41 37 52 13 11 21 24 18 29 -3 5 -2 7 3 6 4 -1 28 9
53 22 74 39 142 50 275 45 152 -6 175 -8 175 -17 0 -5 8 -8 18 -8 10 0 59 -16
108 -36 49 -20 95 -36 102 -37 6 0 12 -3 12 -7 0 -8 145 -64 205 -79 153 -37
330 -25 468 33 21 8 38 15 40 14 1 -1 21 10 44 25 58 37 187 102 196 99 4 -1
7 3 7 9 0 5 3 8 8 6 4 -3 18 0 32 6 42 17 78 26 140 34 74 10 280 4 280 -9 0
-4 8 -7 18 -7 9 1 37 -7 62 -16 25 -9 59 -18 76 -19 16 -1 34 -5 40 -7 5 -3
21 -7 36 -8 16 -1 36 -3 45 -4 33 -3 113 14 113 24 0 5 3 8 8 8 4 -1 10 0 15
1 4 1 11 3 16 4 5 0 23 13 40 29 17 15 34 27 39 27 4 0 20 11 35 25 15 14 27
22 27 18 0 -4 4 -3 8 2 8 12 117 65 132 65 6 0 10 4 10 8 0 4 8 8 18 9 9 1 38
6 63 12 64 14 153 6 195 -17 12 -6 25 -8 29 -4 5 4 5 1 1 -5 -4 -8 -2 -13 5
-13 18 0 88 -79 106 -120 29 -68 35 -127 17 -187 -7 -24 -10 -43 -9 -43 11 0
-53 -99 -82 -126 -12 -12 -21 -23 -20 -25 1 -2 0 -3 -2 -2 -2 1 -20 -9 -41
-22 -21 -13 -51 -27 -67 -31 -15 -4 -32 -9 -38 -12 -35 -20 -222 2 -290 34
-53 25 -89 74 -87 117 1 18 -19 20 -21 2 -1 -18 -24 -34 -45 -32 -12 0 -19 3
-17 6 3 2 -1 11 -7 18 -17 20 -11 78 12 123 19 36 103 120 122 120 5 0 6 4 3
10 -3 5 0 7 8 4 8 -3 20 2 27 10 7 9 16 13 21 10 5 -3 9 -1 9 4 0 5 6 9 13 10
6 0 23 3 37 7 33 9 98 10 135 2 l30 -7 -30 25 c-36 30 -60 33 -153 20 -44 -6
-71 -17 -106 -45 -14 -10 -17 -11 -12 -2 7 11 4 11 -12 1 -12 -7 -18 -17 -15
-23 3 -5 2 -6 -4 -3 -12 8 -83 -39 -83 -55 0 -6 -3 -9 -6 -5 -4 3 -29 -6 -56
-20 -60 -31 -177 -39 -242 -17 -21 8 -42 11 -47 8 -5 -3 -9 -1 -9 4 0 12 -74
34 -127 37 -24 2 -43 2 -43 0 0 -8 76 -50 85 -47 6 2 7 0 3 -4 -4 -3 8 -18 27
-33 75 -57 148 -106 156 -103 5 1 8 -4 7 -10 -2 -7 3 -12 10 -10 6 1 12 -2 12
-7 0 -10 141 -104 157 -104 7 0 10 -3 8 -7 -4 -7 146 -86 157 -82 5 1 8 -2 8
-6 0 -4 20 -14 45 -21 49 -14 63 -36 18 -27 -16 3 -46 8 -68 11 -22 3 -53 7
-70 11 -49 9 -168 33 -191 38 -49 10 -174 49 -239 74 -38 14 -72 27 -75 27
-14 1 -158 86 -169 99 -7 9 -16 14 -20 13 -3 -2 -16 7 -28 20 -12 13 -19 23
-16 23 3 0 -1 8 -9 18 -9 9 -20 31 -26 47 -10 30 -10 30 -11 -13 -1 -43 17
-98 41 -127 32 -39 93 -94 129 -116 38 -24 49 -39 28 -39 -5 0 -7 -5 -3 -12 4
-7 3 -8 -5 -4 -6 4 -17 3 -24 -2 -7 -6 -58 -19 -114 -29 -121 -23 -297 -22
-418 2 -44 9 -92 18 -107 21 -15 3 -82 23 -149 44 -68 21 -126 37 -131 34 -4
-3 -8 -1 -8 4 0 5 -6 9 -12 10 -7 1 -35 6 -63 12 -99 22 -312 28 -358 11 -14
-5 -27 -8 -30 -5 -7 7 -157 -32 -232 -61 -91 -34 -195 -86 -195 -97 0 -5 -4
-7 -8 -4 -4 2 -14 0 -22 -5 -14 -8 77 -6 155 5 27 4 79 8 285 22 247 16 650
-1 995 -42 122 -14 335 -19 425 -9 30 4 93 15 139 26 l84 19 91 -24 c141 -38
252 -59 421 -81 84 -10 302 -22 560 -30 83 -3 192 -7 243 -9 50 -2 92 1 92 5
0 10 0 10 -45 14 -66 7 -118 14 -143 19 -26 5 -93 14 -157 22 -16 2 -50 8 -75
13 -25 5 -61 12 -80 16 -19 3 -42 8 -50 9 -41 8 -70 19 -70 27 0 5 1 9 3 9 1
1 19 3 40 6 113 17 240 108 291 208 15 32 29 68 30 82 0 13 4 24 8 24 3 0 5
14 4 31 -1 16 1 32 5 34 3 3 5 15 4 27 -11 89 -18 124 -26 133 -5 5 -9 17 -9
27 0 10 -4 18 -10 18 -5 0 -9 3 -8 8 5 13 -52 80 -90 104 -62 40 -140 59 -232
56 -45 -1 -84 -6 -86 -10z"/>
<path d="M3830 402 c0 -4 12 -9 28 -10 21 -1 23 0 12 8 -18 12 -40 13 -40 2z"/>
<path d="M3898 393 c6 -2 18 -2 25 0 6 3 1 5 -13 5 -14 0 -19 -2 -12 -5z"/>
</g>
</svg>
